<svg width="49" height="53" viewBox="0 0 49 53" fill="none"
              xmlns="http://www.w3.org/2000/svg">
              <path
                d="M44.1368 6.07016C40.9823 2.761 36.8289 0.925659 32.3863 0.925659C27.9437 0.925659 23.7902 2.761 20.6357 6.07016C18.191 8.65632 16.5874 11.9377 16.0091 15.4693C15.9565 15.8308 15.904 16.1923 15.8777 16.5538C15.8514 16.9153 15.8251 17.2768 15.7988 17.6383C15.7725 17.9164 15.7725 18.2223 15.7725 18.5004V20.8919V21.9764V23.0609V36.1029H28.1014H29.1266H30.1518C30.1781 35.797 30.1781 35.519 30.1781 35.2131V32.8494H29.1529H18.8482V23.0331V20.8919V18.5282C18.8482 18.2223 18.8482 17.9442 18.8745 17.6383C18.9007 17.2768 18.927 16.9153 18.9796 16.5538C19.0322 16.1923 19.0848 15.8308 19.1636 15.4693C19.7157 12.7441 21.03 10.297 22.8176 8.37823C25.2623 5.79208 28.6534 4.17921 32.3863 4.17921C39.8519 4.17921 45.9244 10.6029 45.9244 18.5004C45.9244 22.4491 44.3997 26.0364 41.9549 28.6225C40.1411 30.5413 37.8278 31.9039 35.2516 32.4879V32.7938V35.1853C35.2516 35.4077 35.2516 35.6024 35.2516 35.8248C38.5901 35.2131 41.6921 33.5168 44.1368 30.9306C47.265 27.6215 49 23.2 49 18.5004C49 13.8008 47.265 9.37933 44.1368 6.07016Z"
                fill="white" />
              <path
                d="M18.8482 20.864H19.8734H20.8986H30.1781V30.6803V31.7648V32.8493V35.213C30.1781 35.5189 30.1781 35.797 30.1518 36.1029C30.1255 36.4644 30.0993 36.8259 30.0467 37.1874C29.9941 37.5489 29.9415 37.9104 29.8627 38.2719C29.3106 40.9971 27.9963 43.4442 26.2087 45.363C23.764 47.9492 20.3729 49.562 16.64 49.562C9.17436 49.562 3.10193 43.1383 3.10193 35.2408C3.10193 31.292 4.62661 27.7048 7.07135 25.1186C8.8852 23.1999 11.1985 21.8373 13.7747 21.2533V18.5559C13.7747 18.3334 13.7747 18.1388 13.7747 17.9163C10.4362 18.5281 7.33423 20.2244 4.88949 22.8105C1.73498 26.0641 0 30.4856 0 35.1852C0 39.8848 1.73498 44.2785 4.8632 47.6154C7.99142 50.9246 12.1711 52.76 16.6137 52.76C21.0563 52.76 25.2098 50.9246 28.3643 47.6154C31.3085 44.5009 33.0172 40.4131 33.2012 36.0472C33.2012 35.9082 33.2012 35.7692 33.2275 35.6301C33.2275 35.5467 33.2275 35.4911 33.2275 35.4077C33.2275 35.3242 33.2275 35.2686 33.2275 35.1852V32.7937V17.6104H20.8986H19.8734H18.8482C18.8219 17.9163 18.8219 18.1944 18.8219 18.5003L18.8482 20.864Z"
                fill="white" /></svg>